%TF.GenerationSoftware,KiCad,Pcbnew,9.0.8-9.0.8~ubuntu24.04.1*%
%TF.CreationDate,2026-05-05T21:25:32+02:00*%
%TF.ProjectId,tproject,7470726f-6a65-4637-942e-6b696361645f,rev?*%
%TF.SameCoordinates,Original*%
%TF.FileFunction,Soldermask,Top*%
%TF.FilePolarity,Negative*%
%FSLAX46Y46*%
G04 Gerber Fmt 4.6, Leading zero omitted, Abs format (unit mm)*
G04 Created by KiCad (PCBNEW 9.0.8-9.0.8~ubuntu24.04.1) date 2026-05-05 21:25:32*
%MOMM*%
%LPD*%
G01*
G04 APERTURE LIST*
G04 Aperture macros list*
%AMRoundRect*
0 Rectangle with rounded corners*
0 $1 Rounding radius*
0 $2 $3 $4 $5 $6 $7 $8 $9 X,Y pos of 4 corners*
0 Add a 4 corners polygon primitive as box body*
4,1,4,$2,$3,$4,$5,$6,$7,$8,$9,$2,$3,0*
0 Add four circle primitives for the rounded corners*
1,1,$1+$1,$2,$3*
1,1,$1+$1,$4,$5*
1,1,$1+$1,$6,$7*
1,1,$1+$1,$8,$9*
0 Add four rect primitives between the rounded corners*
20,1,$1+$1,$2,$3,$4,$5,0*
20,1,$1+$1,$4,$5,$6,$7,0*
20,1,$1+$1,$6,$7,$8,$9,0*
20,1,$1+$1,$8,$9,$2,$3,0*%
G04 Aperture macros list end*
%ADD10C,2.200000*%
%ADD11RoundRect,0.225000X-0.225000X-0.250000X0.225000X-0.250000X0.225000X0.250000X-0.225000X0.250000X0*%
%ADD12RoundRect,0.135000X0.135000X0.185000X-0.135000X0.185000X-0.135000X-0.185000X0.135000X-0.185000X0*%
%ADD13R,1.700000X1.700000*%
%ADD14C,1.700000*%
%ADD15RoundRect,0.135000X-0.135000X-0.185000X0.135000X-0.185000X0.135000X0.185000X-0.135000X0.185000X0*%
%ADD16RoundRect,0.250000X0.475000X-0.250000X0.475000X0.250000X-0.475000X0.250000X-0.475000X-0.250000X0*%
%ADD17RoundRect,0.075000X-0.662500X-0.075000X0.662500X-0.075000X0.662500X0.075000X-0.662500X0.075000X0*%
%ADD18RoundRect,0.075000X-0.075000X-0.662500X0.075000X-0.662500X0.075000X0.662500X-0.075000X0.662500X0*%
%ADD19RoundRect,0.218750X-0.256250X0.218750X-0.256250X-0.218750X0.256250X-0.218750X0.256250X0.218750X0*%
%ADD20RoundRect,0.135000X0.185000X-0.135000X0.185000X0.135000X-0.185000X0.135000X-0.185000X-0.135000X0*%
%ADD21RoundRect,0.140000X0.170000X-0.140000X0.170000X0.140000X-0.170000X0.140000X-0.170000X-0.140000X0*%
%ADD22RoundRect,0.135000X-0.185000X0.135000X-0.185000X-0.135000X0.185000X-0.135000X0.185000X0.135000X0*%
%ADD23R,0.800000X1.000000*%
%ADD24C,0.900000*%
%ADD25R,1.500000X0.700000*%
%ADD26RoundRect,0.140000X-0.140000X-0.170000X0.140000X-0.170000X0.140000X0.170000X-0.140000X0.170000X0*%
%ADD27O,0.800000X0.800000*%
%ADD28R,1.300000X0.450000*%
%ADD29O,1.800000X1.150000*%
%ADD30O,2.000000X1.450000*%
%ADD31RoundRect,0.140000X0.140000X0.170000X-0.140000X0.170000X-0.140000X-0.170000X0.140000X-0.170000X0*%
%ADD32RoundRect,0.250000X-0.250000X-0.475000X0.250000X-0.475000X0.250000X0.475000X-0.250000X0.475000X0*%
%ADD33RoundRect,0.140000X-0.170000X0.140000X-0.170000X-0.140000X0.170000X-0.140000X0.170000X0.140000X0*%
%ADD34RoundRect,0.250000X-0.350000X0.450000X-0.350000X-0.450000X0.350000X-0.450000X0.350000X0.450000X0*%
%ADD35RoundRect,0.375000X-0.375000X0.625000X-0.375000X-0.625000X0.375000X-0.625000X0.375000X0.625000X0*%
%ADD36RoundRect,0.500000X-1.400000X0.500000X-1.400000X-0.500000X1.400000X-0.500000X1.400000X0.500000X0*%
G04 APERTURE END LIST*
D10*
%TO.C,H1*%
X39500000Y-82500000D03*
%TD*%
D11*
%TO.C,C3*%
X52725000Y-59500000D03*
X54275000Y-59500000D03*
%TD*%
D12*
%TO.C,R4*%
X54000000Y-77750000D03*
X52980000Y-77750000D03*
%TD*%
D13*
%TO.C,J3*%
X52250000Y-55000000D03*
D14*
X49710000Y-55000000D03*
X47170000Y-55000000D03*
X44630000Y-55000000D03*
%TD*%
D15*
%TO.C,R1*%
X72480000Y-72000000D03*
X73500000Y-72000000D03*
%TD*%
D16*
%TO.C,C2*%
X69000000Y-76650000D03*
X69000000Y-74750000D03*
%TD*%
D17*
%TO.C,U1*%
X51837500Y-64500000D03*
X51837500Y-65000000D03*
X51837500Y-65500000D03*
X51837500Y-66000000D03*
X51837500Y-66500000D03*
X51837500Y-67000000D03*
X51837500Y-67500000D03*
X51837500Y-68000000D03*
X51837500Y-68500000D03*
X51837500Y-69000000D03*
X51837500Y-69500000D03*
X51837500Y-70000000D03*
D18*
X53250000Y-71412500D03*
X53750000Y-71412500D03*
X54250000Y-71412500D03*
X54750000Y-71412500D03*
X55250000Y-71412500D03*
X55750000Y-71412500D03*
X56250000Y-71412500D03*
X56750000Y-71412500D03*
X57250000Y-71412500D03*
X57750000Y-71412500D03*
X58250000Y-71412500D03*
X58750000Y-71412500D03*
D17*
X60162500Y-70000000D03*
X60162500Y-69500000D03*
X60162500Y-69000000D03*
X60162500Y-68500000D03*
X60162500Y-68000000D03*
X60162500Y-67500000D03*
X60162500Y-67000000D03*
X60162500Y-66500000D03*
X60162500Y-66000000D03*
X60162500Y-65500000D03*
X60162500Y-65000000D03*
X60162500Y-64500000D03*
D18*
X58750000Y-63087500D03*
X58250000Y-63087500D03*
X57750000Y-63087500D03*
X57250000Y-63087500D03*
X56750000Y-63087500D03*
X56250000Y-63087500D03*
X55750000Y-63087500D03*
X55250000Y-63087500D03*
X54750000Y-63087500D03*
X54250000Y-63087500D03*
X53750000Y-63087500D03*
X53250000Y-63087500D03*
%TD*%
D19*
%TO.C,D1*%
X72500000Y-75000000D03*
X72500000Y-76575000D03*
%TD*%
D20*
%TO.C,R2*%
X42500000Y-63260000D03*
X42500000Y-62240000D03*
%TD*%
D21*
%TO.C,C12*%
X48250000Y-65750000D03*
X48250000Y-64790000D03*
%TD*%
D22*
%TO.C,R3*%
X64750000Y-64980000D03*
X64750000Y-66000000D03*
%TD*%
D23*
%TO.C,SW1*%
X39610000Y-60100000D03*
X37400000Y-60100000D03*
D24*
X38500000Y-62250000D03*
X38500000Y-65250000D03*
D23*
X39610000Y-67400000D03*
X37400000Y-67400000D03*
D25*
X40260000Y-61500000D03*
X40260000Y-64500000D03*
X40260000Y-66000000D03*
%TD*%
D26*
%TO.C,C11*%
X53520000Y-74000000D03*
X54480000Y-74000000D03*
%TD*%
D13*
%TO.C,J4*%
X48920000Y-82750000D03*
D14*
X51460000Y-82750000D03*
X54000000Y-82750000D03*
X56540000Y-82750000D03*
%TD*%
D21*
%TO.C,C13*%
X48250000Y-68000000D03*
X48250000Y-67040000D03*
%TD*%
D13*
%TO.C,J2*%
X66500000Y-55000000D03*
D14*
X63960000Y-55000000D03*
X61420000Y-55000000D03*
X58880000Y-55000000D03*
%TD*%
D27*
%TO.C,J1*%
X70000000Y-68525000D03*
X70000000Y-63525000D03*
D28*
X68900000Y-67325000D03*
X68900000Y-66675000D03*
X68900000Y-66025000D03*
X68900000Y-65375000D03*
X68900000Y-64725000D03*
D29*
X72750000Y-69900000D03*
D30*
X68950000Y-69750000D03*
X68950000Y-62300000D03*
D29*
X72750000Y-62150000D03*
%TD*%
D21*
%TO.C,C8*%
X49750000Y-68730000D03*
X49750000Y-67770000D03*
%TD*%
D31*
%TO.C,C10*%
X49750000Y-73575000D03*
X48790000Y-73575000D03*
%TD*%
D21*
%TO.C,C4*%
X50000000Y-64480000D03*
X50000000Y-63520000D03*
%TD*%
D32*
%TO.C,C1*%
X63350000Y-70500000D03*
X65250000Y-70500000D03*
%TD*%
D33*
%TO.C,C6*%
X62000000Y-64250000D03*
X62000000Y-65210000D03*
%TD*%
D34*
%TO.C,Y1*%
X44800000Y-65300000D03*
X44800000Y-67500000D03*
X46500000Y-67500000D03*
X46500000Y-65300000D03*
%TD*%
D31*
%TO.C,C9*%
X49750000Y-72075000D03*
X48790000Y-72075000D03*
%TD*%
D10*
%TO.C,H3*%
X72161009Y-54750000D03*
%TD*%
D15*
%TO.C,R5*%
X55480000Y-77750000D03*
X56500000Y-77750000D03*
%TD*%
D10*
%TO.C,H4*%
X72000000Y-82250000D03*
%TD*%
D35*
%TO.C,U2*%
X66500000Y-73000000D03*
X64200000Y-73000000D03*
D36*
X64200000Y-79300000D03*
D35*
X61900000Y-73000000D03*
%TD*%
D10*
%TO.C,H2*%
X39000000Y-54750000D03*
%TD*%
D26*
%TO.C,C7*%
X53040000Y-61250000D03*
X54000000Y-61250000D03*
%TD*%
D31*
%TO.C,C5*%
X59250000Y-73250000D03*
X58290000Y-73250000D03*
%TD*%
D19*
%TO.C,FB1*%
X51250000Y-71750000D03*
X51250000Y-73325000D03*
%TD*%
M02*
