M48
; DRILL file {KiCad 9.0.8-9.0.8~ubuntu24.04.1} date 2026-05-05T21:25:25+0200
; FORMAT={-:-/ absolute / metric / decimal}
; #@! TF.CreationDate,2026-05-05T21:25:25+02:00
; #@! TF.GenerationSoftware,Kicad,Pcbnew,9.0.8-9.0.8~ubuntu24.04.1
; #@! TF.FileFunction,Plated,1,2,PTH
FMAT,2
METRIC
; #@! TA.AperFunction,Plated,PTH,ViaDrill
T1C0.300
; #@! TA.AperFunction,Plated,PTH,ComponentDrill
T2C0.550
; #@! TA.AperFunction,Plated,PTH,ComponentDrill
T3C0.850
; #@! TA.AperFunction,Plated,PTH,ComponentDrill
T4C1.000
%
G90
G05
T1
X40.75Y-60.5
X42.5Y-55.0
X44.8Y-68.95
X46.5Y-64.0
X48.25Y-64.0
X48.79Y-71.04
X48.79Y-74.21
X48.982Y-66.463
X50.0Y-62.5
X51.75Y-79.75
X53.042Y-68.228
X53.75Y-64.5
X54.0Y-79.75
X54.5Y-73.25
X55.75Y-76.0
X56.5Y-55.0
X57.25Y-76.0
X58.25Y-70.0
X59.25Y-82.75
X63.0Y-65.25
X66.0Y-74.75
X66.5Y-70.0
X66.5Y-71.0
X66.75Y-74.75
X67.0Y-64.75
X70.5Y-74.75
X74.25Y-72.0
T4
X44.63Y-55.0
X47.17Y-55.0
X48.92Y-82.75
X49.71Y-55.0
X51.46Y-82.75
X52.25Y-55.0
X54.0Y-82.75
X56.54Y-82.75
X58.88Y-55.0
X61.42Y-55.0
X63.96Y-55.0
X66.5Y-55.0
T2
G00X72.425Y-62.15
M15
G01X73.075Y-62.15
M16
G05
G00X72.425Y-69.9
M15
G01X73.075Y-69.9
M16
G05
T3
G00X68.675Y-62.3
M15
G01X69.225Y-62.3
M16
G05
G00X68.675Y-69.75
M15
G01X69.225Y-69.75
M16
G05
M30
