%TF.GenerationSoftware,KiCad,Pcbnew,9.0.8-9.0.8~ubuntu24.04.1*%
%TF.CreationDate,2026-05-05T21:25:32+02:00*%
%TF.ProjectId,tproject,7470726f-6a65-4637-942e-6b696361645f,rev?*%
%TF.SameCoordinates,Original*%
%TF.FileFunction,Legend,Bot*%
%TF.FilePolarity,Positive*%
%FSLAX46Y46*%
G04 Gerber Fmt 4.6, Leading zero omitted, Abs format (unit mm)*
G04 Created by KiCad (PCBNEW 9.0.8-9.0.8~ubuntu24.04.1) date 2026-05-05 21:25:32*
%MOMM*%
%LPD*%
G01*
G04 APERTURE LIST*
%ADD10C,0.100000*%
G04 APERTURE END LIST*
D10*
X41172306Y-75122419D02*
X41743734Y-75122419D01*
X41458020Y-75122419D02*
X41458020Y-74122419D01*
X41458020Y-74122419D02*
X41553258Y-74265276D01*
X41553258Y-74265276D02*
X41648496Y-74360514D01*
X41648496Y-74360514D02*
X41743734Y-74408133D01*
X40743734Y-75027180D02*
X40696115Y-75074800D01*
X40696115Y-75074800D02*
X40743734Y-75122419D01*
X40743734Y-75122419D02*
X40791353Y-75074800D01*
X40791353Y-75074800D02*
X40743734Y-75027180D01*
X40743734Y-75027180D02*
X40743734Y-75122419D01*
X40077068Y-74122419D02*
X39981830Y-74122419D01*
X39981830Y-74122419D02*
X39886592Y-74170038D01*
X39886592Y-74170038D02*
X39838973Y-74217657D01*
X39838973Y-74217657D02*
X39791354Y-74312895D01*
X39791354Y-74312895D02*
X39743735Y-74503371D01*
X39743735Y-74503371D02*
X39743735Y-74741466D01*
X39743735Y-74741466D02*
X39791354Y-74931942D01*
X39791354Y-74931942D02*
X39838973Y-75027180D01*
X39838973Y-75027180D02*
X39886592Y-75074800D01*
X39886592Y-75074800D02*
X39981830Y-75122419D01*
X39981830Y-75122419D02*
X40077068Y-75122419D01*
X40077068Y-75122419D02*
X40172306Y-75074800D01*
X40172306Y-75074800D02*
X40219925Y-75027180D01*
X40219925Y-75027180D02*
X40267544Y-74931942D01*
X40267544Y-74931942D02*
X40315163Y-74741466D01*
X40315163Y-74741466D02*
X40315163Y-74503371D01*
X40315163Y-74503371D02*
X40267544Y-74312895D01*
X40267544Y-74312895D02*
X40219925Y-74217657D01*
X40219925Y-74217657D02*
X40172306Y-74170038D01*
X40172306Y-74170038D02*
X40077068Y-74122419D01*
X39315163Y-75027180D02*
X39267544Y-75074800D01*
X39267544Y-75074800D02*
X39315163Y-75122419D01*
X39315163Y-75122419D02*
X39362782Y-75074800D01*
X39362782Y-75074800D02*
X39315163Y-75027180D01*
X39315163Y-75027180D02*
X39315163Y-75122419D01*
X38648497Y-74122419D02*
X38553259Y-74122419D01*
X38553259Y-74122419D02*
X38458021Y-74170038D01*
X38458021Y-74170038D02*
X38410402Y-74217657D01*
X38410402Y-74217657D02*
X38362783Y-74312895D01*
X38362783Y-74312895D02*
X38315164Y-74503371D01*
X38315164Y-74503371D02*
X38315164Y-74741466D01*
X38315164Y-74741466D02*
X38362783Y-74931942D01*
X38362783Y-74931942D02*
X38410402Y-75027180D01*
X38410402Y-75027180D02*
X38458021Y-75074800D01*
X38458021Y-75074800D02*
X38553259Y-75122419D01*
X38553259Y-75122419D02*
X38648497Y-75122419D01*
X38648497Y-75122419D02*
X38743735Y-75074800D01*
X38743735Y-75074800D02*
X38791354Y-75027180D01*
X38791354Y-75027180D02*
X38838973Y-74931942D01*
X38838973Y-74931942D02*
X38886592Y-74741466D01*
X38886592Y-74741466D02*
X38886592Y-74503371D01*
X38886592Y-74503371D02*
X38838973Y-74312895D01*
X38838973Y-74312895D02*
X38791354Y-74217657D01*
X38791354Y-74217657D02*
X38743735Y-74170038D01*
X38743735Y-74170038D02*
X38648497Y-74122419D01*
X43291353Y-76122419D02*
X42672306Y-76122419D01*
X42672306Y-76122419D02*
X43005639Y-76503371D01*
X43005639Y-76503371D02*
X42862782Y-76503371D01*
X42862782Y-76503371D02*
X42767544Y-76550990D01*
X42767544Y-76550990D02*
X42719925Y-76598609D01*
X42719925Y-76598609D02*
X42672306Y-76693847D01*
X42672306Y-76693847D02*
X42672306Y-76931942D01*
X42672306Y-76931942D02*
X42719925Y-77027180D01*
X42719925Y-77027180D02*
X42767544Y-77074800D01*
X42767544Y-77074800D02*
X42862782Y-77122419D01*
X42862782Y-77122419D02*
X43148496Y-77122419D01*
X43148496Y-77122419D02*
X43243734Y-77074800D01*
X43243734Y-77074800D02*
X43291353Y-77027180D01*
X42243734Y-77122419D02*
X42243734Y-76122419D01*
X42243734Y-76122419D02*
X41910401Y-76836704D01*
X41910401Y-76836704D02*
X41577068Y-76122419D01*
X41577068Y-76122419D02*
X41577068Y-77122419D01*
X40672306Y-77122419D02*
X40672306Y-76598609D01*
X40672306Y-76598609D02*
X40719925Y-76503371D01*
X40719925Y-76503371D02*
X40815163Y-76455752D01*
X40815163Y-76455752D02*
X41005639Y-76455752D01*
X41005639Y-76455752D02*
X41100877Y-76503371D01*
X40672306Y-77074800D02*
X40767544Y-77122419D01*
X40767544Y-77122419D02*
X41005639Y-77122419D01*
X41005639Y-77122419D02*
X41100877Y-77074800D01*
X41100877Y-77074800D02*
X41148496Y-76979561D01*
X41148496Y-76979561D02*
X41148496Y-76884323D01*
X41148496Y-76884323D02*
X41100877Y-76789085D01*
X41100877Y-76789085D02*
X41005639Y-76741466D01*
X41005639Y-76741466D02*
X40767544Y-76741466D01*
X40767544Y-76741466D02*
X40672306Y-76693847D01*
X40291353Y-76455752D02*
X40053258Y-77122419D01*
X39815163Y-76455752D02*
X40053258Y-77122419D01*
X40053258Y-77122419D02*
X40148496Y-77360514D01*
X40148496Y-77360514D02*
X40196115Y-77408133D01*
X40196115Y-77408133D02*
X40291353Y-77455752D01*
X39481829Y-76217657D02*
X39434210Y-76170038D01*
X39434210Y-76170038D02*
X39338972Y-76122419D01*
X39338972Y-76122419D02*
X39100877Y-76122419D01*
X39100877Y-76122419D02*
X39005639Y-76170038D01*
X39005639Y-76170038D02*
X38958020Y-76217657D01*
X38958020Y-76217657D02*
X38910401Y-76312895D01*
X38910401Y-76312895D02*
X38910401Y-76408133D01*
X38910401Y-76408133D02*
X38958020Y-76550990D01*
X38958020Y-76550990D02*
X39529448Y-77122419D01*
X39529448Y-77122419D02*
X38910401Y-77122419D01*
X38053258Y-76122419D02*
X38243734Y-76122419D01*
X38243734Y-76122419D02*
X38338972Y-76170038D01*
X38338972Y-76170038D02*
X38386591Y-76217657D01*
X38386591Y-76217657D02*
X38481829Y-76360514D01*
X38481829Y-76360514D02*
X38529448Y-76550990D01*
X38529448Y-76550990D02*
X38529448Y-76931942D01*
X38529448Y-76931942D02*
X38481829Y-77027180D01*
X38481829Y-77027180D02*
X38434210Y-77074800D01*
X38434210Y-77074800D02*
X38338972Y-77122419D01*
X38338972Y-77122419D02*
X38148496Y-77122419D01*
X38148496Y-77122419D02*
X38053258Y-77074800D01*
X38053258Y-77074800D02*
X38005639Y-77027180D01*
X38005639Y-77027180D02*
X37958020Y-76931942D01*
X37958020Y-76931942D02*
X37958020Y-76693847D01*
X37958020Y-76693847D02*
X38005639Y-76598609D01*
X38005639Y-76598609D02*
X38053258Y-76550990D01*
X38053258Y-76550990D02*
X38148496Y-76503371D01*
X38148496Y-76503371D02*
X38338972Y-76503371D01*
X38338972Y-76503371D02*
X38434210Y-76550990D01*
X38434210Y-76550990D02*
X38481829Y-76598609D01*
X38481829Y-76598609D02*
X38529448Y-76693847D01*
X43696115Y-78872419D02*
X43696115Y-78205752D01*
X43696115Y-77872419D02*
X43743734Y-77920038D01*
X43743734Y-77920038D02*
X43696115Y-77967657D01*
X43696115Y-77967657D02*
X43648496Y-77920038D01*
X43648496Y-77920038D02*
X43696115Y-77872419D01*
X43696115Y-77872419D02*
X43696115Y-77967657D01*
X43362782Y-78205752D02*
X42981830Y-78205752D01*
X43219925Y-77872419D02*
X43219925Y-78729561D01*
X43219925Y-78729561D02*
X43172306Y-78824800D01*
X43172306Y-78824800D02*
X43077068Y-78872419D01*
X43077068Y-78872419D02*
X42981830Y-78872419D01*
X42648496Y-78872419D02*
X42648496Y-78205752D01*
X42648496Y-78300990D02*
X42600877Y-78253371D01*
X42600877Y-78253371D02*
X42505639Y-78205752D01*
X42505639Y-78205752D02*
X42362782Y-78205752D01*
X42362782Y-78205752D02*
X42267544Y-78253371D01*
X42267544Y-78253371D02*
X42219925Y-78348609D01*
X42219925Y-78348609D02*
X42219925Y-78872419D01*
X42219925Y-78348609D02*
X42172306Y-78253371D01*
X42172306Y-78253371D02*
X42077068Y-78205752D01*
X42077068Y-78205752D02*
X41934211Y-78205752D01*
X41934211Y-78205752D02*
X41838972Y-78253371D01*
X41838972Y-78253371D02*
X41791353Y-78348609D01*
X41791353Y-78348609D02*
X41791353Y-78872419D01*
X40886592Y-78872419D02*
X40886592Y-78348609D01*
X40886592Y-78348609D02*
X40934211Y-78253371D01*
X40934211Y-78253371D02*
X41029449Y-78205752D01*
X41029449Y-78205752D02*
X41219925Y-78205752D01*
X41219925Y-78205752D02*
X41315163Y-78253371D01*
X40886592Y-78824800D02*
X40981830Y-78872419D01*
X40981830Y-78872419D02*
X41219925Y-78872419D01*
X41219925Y-78872419D02*
X41315163Y-78824800D01*
X41315163Y-78824800D02*
X41362782Y-78729561D01*
X41362782Y-78729561D02*
X41362782Y-78634323D01*
X41362782Y-78634323D02*
X41315163Y-78539085D01*
X41315163Y-78539085D02*
X41219925Y-78491466D01*
X41219925Y-78491466D02*
X40981830Y-78491466D01*
X40981830Y-78491466D02*
X40886592Y-78443847D01*
X40410401Y-78777180D02*
X40362782Y-78824800D01*
X40362782Y-78824800D02*
X40410401Y-78872419D01*
X40410401Y-78872419D02*
X40458020Y-78824800D01*
X40458020Y-78824800D02*
X40410401Y-78777180D01*
X40410401Y-78777180D02*
X40410401Y-78872419D01*
X40077068Y-78205752D02*
X39696116Y-78205752D01*
X39934211Y-77872419D02*
X39934211Y-78729561D01*
X39934211Y-78729561D02*
X39886592Y-78824800D01*
X39886592Y-78824800D02*
X39791354Y-78872419D01*
X39791354Y-78872419D02*
X39696116Y-78872419D01*
X38981830Y-78824800D02*
X39077068Y-78872419D01*
X39077068Y-78872419D02*
X39267544Y-78872419D01*
X39267544Y-78872419D02*
X39362782Y-78824800D01*
X39362782Y-78824800D02*
X39410401Y-78729561D01*
X39410401Y-78729561D02*
X39410401Y-78348609D01*
X39410401Y-78348609D02*
X39362782Y-78253371D01*
X39362782Y-78253371D02*
X39267544Y-78205752D01*
X39267544Y-78205752D02*
X39077068Y-78205752D01*
X39077068Y-78205752D02*
X38981830Y-78253371D01*
X38981830Y-78253371D02*
X38934211Y-78348609D01*
X38934211Y-78348609D02*
X38934211Y-78443847D01*
X38934211Y-78443847D02*
X39410401Y-78539085D01*
X38077068Y-78824800D02*
X38172306Y-78872419D01*
X38172306Y-78872419D02*
X38362782Y-78872419D01*
X38362782Y-78872419D02*
X38458020Y-78824800D01*
X38458020Y-78824800D02*
X38505639Y-78777180D01*
X38505639Y-78777180D02*
X38553258Y-78681942D01*
X38553258Y-78681942D02*
X38553258Y-78396228D01*
X38553258Y-78396228D02*
X38505639Y-78300990D01*
X38505639Y-78300990D02*
X38458020Y-78253371D01*
X38458020Y-78253371D02*
X38362782Y-78205752D01*
X38362782Y-78205752D02*
X38172306Y-78205752D01*
X38172306Y-78205752D02*
X38077068Y-78253371D01*
X37648496Y-78872419D02*
X37648496Y-77872419D01*
X37219925Y-78872419D02*
X37219925Y-78348609D01*
X37219925Y-78348609D02*
X37267544Y-78253371D01*
X37267544Y-78253371D02*
X37362782Y-78205752D01*
X37362782Y-78205752D02*
X37505639Y-78205752D01*
X37505639Y-78205752D02*
X37600877Y-78253371D01*
X37600877Y-78253371D02*
X37648496Y-78300990D01*
M02*
